{"title":"Town.Creek.2009.DVDRip.Swesub.Xvid","uid":8576344,"size":733467068,"categoryP":"video","categoryS":"movies","magnet":"?xt=urn:btih:a1632ce274921d26f36caebcc753e297c260331c&amp;dn=Town.Creek.2009.DVDRip.Swesub.Xvid&amp;tr=udp%3A%2F%2Ftracker.openbittorrent.com%3A80&amp;tr=udp%3A%2F%2Fopen.demonii.com%3A1337&amp;tr=udp%3A%2F%2Ftracker.coppersurfer.tk%3A6969&amp;tr=udp%3A%2F%2Fexodus.desync.com%3A6969","seeders":1,"leechers":0,"uploader":"nordjok","files":-1,"time":1371287560,"description":"                             Swedish Hardsub\n\n\nTown Creek (original title) AKA Blood Creek\n &lt;a href=&quot;\nhttp://www.imdb.com/title/tt0450336/&quot; rel=&quot;nofollow&quot; target=&quot;_NEW&quot;&gt;\nhttp://www.imdb.com/title/tt0450336/&lt;/a&gt;\n\nGeneral\nComplete name                       : Town.Creek.2009.DVDRip.Swesub.Xvid.avi\nFormat                              : AVI\nFormat/Info                         : Audio Video Interleave\nFile size                           : 699 MiB\nDuration                            : 1h 26mn\n\n\nVideo\nID                                  : 0\nFormat                              : MPEG-4 Visual\nFormat profile                      : Advanced Simple@L5\nFormat settings, BVOP               : 2\nFormat settings, QPel               : No\nFormat settings, GMC                : No warppoints\nFormat settings, Matrix             : Default (H.263)\nCodec ID                            : XVID\nCodec ID/Hint                       : XviD\nDuration                            : 1h 26mn\nBit rate                            : 986 Kbps\nWidth                               : 720 pixels\nHeight                              : 304 pixels\nDisplay aspect ratio                : 2.35:1\nFrame rate                          : 25.000 fps\nColor space                         : YUV\nChroma subsampling                  : 4:2:0\nBit depth                           : 8 bits\nScan type                           : Progressive\nCompression mode                    : Lossy\nBits/(Pixel*Frame)                  : 0.180\nStream size                         : 611 MiB (87%)\nWriting library                     : XviD 73\n\nAudio\nID                                  : 1\nFormat                              : MPEG Audio\nFormat version                      : Version 1\nFormat profile                      : Layer 3\nCodec ID                            : 55\nCodec ID/Hint                       : MP3\nDuration                            : 1h 26mn\nBit rate mode                       : Variable\nBit rate                            : 130 Kbps\nMinimum bit rate                    : 32.0 Kbps\nChannel(s)                          : 2 channels\nSampling rate                       : 48.0 KHz\nCompression mode                    : Lossy\nStream size                         : 80.7 MiB (12%)\nAlignment                           : Aligned on interleaves\nInterleave, duration                : 24 ms (0.60 video frame)\nInterleave, preload duration        : 159 ms\nWriting library                     : LAME3.99r\nEncoding settings                   : -m s -V 5 -q 0 -lowpass 17 --vbr-new -b 32\n\n","torrent":{"xt":"urn:btih:a1632ce274921d26f36caebcc753e297c260331c","amp;dn":"Town.Creek.2009.DVDRip.Swesub.Xvid","amp;tr":["udp%3A%2F%2Ftracker.openbittorrent.com%3A80","udp%3A%2F%2Fopen.demonii.com%3A1337","udp%3A%2F%2Ftracker.coppersurfer.tk%3A6969","udp%3A%2F%2Fexodus.desync.com%3A6969"],"infoHash":"a1632ce274921d26f36caebcc753e297c260331c","infoHashBuffer":{"type":"Buffer","data":[161,99,44,226,116,146,29,38,243,108,174,188,199,83,226,151,194,96,51,28]},"announce":[],"urlList":[]}}